<svg id="Layer_1" data-name="Layer 1" xmlns="http://www.w3.org/2000/svg" viewBox="0 0 1127.05 600.7"><defs><style>.cls-1{fill:#b0d237;}.cls-2{fill:#201b50;}</style></defs><rect class="cls-1" width="1127.05" height="600.7"/><path class="cls-2" d="M394.17,373.3q15.16,0,25.56-6.2A50.1,50.1,0,0,0,436.46,351a66.78,66.78,0,0,0,9-22.76,132.08,132.08,0,0,0,2.63-26.49v-82.6h42.44v82.6a160.44,160.44,0,0,1-5.42,42.44,97.75,97.75,0,0,1-17,34.7,81.66,81.66,0,0,1-29.9,23.54q-18.29,8.67-43.69,8.67-26.33,0-44.75-9.13a83.68,83.68,0,0,1-29.9-24.17,96.25,96.25,0,0,1-16.57-34.85,164.68,164.68,0,0,1-5.11-41.2V189.61h42.75V301.74a133,133,0,0,0,2.63,26.8,66.38,66.38,0,0,0,9,22.76,49,49,0,0,0,16.58,16q10.23,6,25.09,6"/><polygon class="cls-2" points="634.34 287.18 718.59 189.6 671.5 189.6 579.19 294.3 579.19 189.92 536.43 189.92 536.43 338.89 583.96 338.89 607.38 314.44 675.84 409.54 723.86 409.54 634.34 287.18"/><path class="cls-2" d="M248.86,256.67a95,95,0,0,0-54.38-58.4q-20.28-8.66-47.23-8.67H67.32v48h42.75V227.08h37.18A69.56,69.56,0,0,1,175,232.35a56.58,56.58,0,0,1,20.6,14.87,65.17,65.17,0,0,1,12.7,22.92,93.65,93.65,0,0,1,4.34,29.12,92.57,92.57,0,0,1-4.34,28.81,68.37,68.37,0,0,1-12.55,23.08,57.36,57.36,0,0,1-20.43,15.34q-12.24,5.56-28,5.57H110.07V311.6H67.32v97.94h79.93q24.76,0,44.75-7.9a98.37,98.37,0,0,0,34.24-22.3,97.07,97.07,0,0,0,21.84-34.69q7.59-20.29,7.59-45.39a131.14,131.14,0,0,0-6.81-42.59"/><path class="cls-2" d="M832.15,324.66l31.6-86.42,30.37,86.42Zm113.3,30L882.65,189.6H844.86l-84,219.94h44L825,354.71H945.45Z"/><path class="cls-2" d="M1059.73,382.1a29,29,0,1,1-29-29,29,29,0,0,1,29,29"/></svg>