<svg id="Layer_1" data-name="Layer 1" xmlns="http://www.w3.org/2000/svg" viewBox="0 0 1134.51 604.68"><defs><style>.cls-1{fill:#201b50;}.cls-2{fill:#b0d237;}</style></defs><rect class="cls-1" width="1134.51" height="604.68"/><path class="cls-2" d="M396.78,375.77q15.25,0,25.73-6.23a50.35,50.35,0,0,0,16.83-16.22,67,67,0,0,0,9.05-22.92A133,133,0,0,0,451,303.74V220.59h42.73v83.15a161.67,161.67,0,0,1-5.46,42.72,98.16,98.16,0,0,1-17.15,34.92,82,82,0,0,1-30.09,23.7q-18.4,8.73-44,8.73-26.49,0-45.05-9.19a84.2,84.2,0,0,1-30.1-24.33,97,97,0,0,1-16.68-35.08,165.91,165.91,0,0,1-5.14-41.47V190.86h43V303.74a134,134,0,0,0,2.64,27,67,67,0,0,0,9,22.91,49.33,49.33,0,0,0,16.69,16.06q10.31,6.09,25.26,6.08"/><polygon class="cls-2" points="638.53 289.08 723.35 190.86 675.95 190.86 583.02 296.25 583.02 191.17 539.98 191.17 539.98 341.13 587.83 341.13 611.4 316.52 680.32 412.26 728.65 412.26 638.53 289.08"/><path class="cls-2" d="M250.5,258.37a95.64,95.64,0,0,0-54.73-58.79q-20.43-8.72-47.55-8.72H67.76v48.3h43V228.59h37.43a70.05,70.05,0,0,1,27.91,5.3,56.9,56.9,0,0,1,20.73,15,65.53,65.53,0,0,1,12.79,23.07A94.57,94.57,0,0,1,214,301.24a93.4,93.4,0,0,1-4.37,29A69,69,0,0,1,197,353.48a57.78,57.78,0,0,1-20.57,15.43q-12.33,5.61-28.23,5.61H110.79V313.66h-43v98.6h80.46q24.94,0,45.05-8a99.05,99.05,0,0,0,34.47-22.44,97.79,97.79,0,0,0,22-34.93q7.64-20.43,7.64-45.69a131.74,131.74,0,0,0-6.86-42.87"/><path class="cls-2" d="M837.66,326.81l31.81-87,30.57,87Zm114,30.25-63.21-166.2h-38l-84.52,221.4h44.28l20.27-55.2H951.7Z"/><path class="cls-2" d="M1066.75,384.63a29.19,29.19,0,1,1-29.18-29.18,29.17,29.17,0,0,1,29.18,29.18"/></svg>